<mxfile host="app.diagrams.net" modified="2020-11-04T14:45:18.300Z" agent="5.0 (Windows NT 10.0; Win64; x64) AppleWebKit/537.36 (KHTML, like Gecko) Chrome/86.0.4240.183 Safari/537.36" etag="a-b93HlqaBO2LzqJKgwK" version="13.8.8" type="github">
  <diagram id="B7XgL3pODUn24mQnfjd7" name="Page-1">
    <mxGraphModel dx="1888" dy="1680" grid="1" gridSize="10" guides="1" tooltips="1" connect="1" arrows="1" fold="1" page="1" pageScale="1" pageWidth="850" pageHeight="1100" math="0" shadow="0">
      <root>
        <mxCell id="0" />
        <mxCell id="1" parent="0" />
        <mxCell id="Wokrbv4A2JVgRsXC0iDb-29" value="1" style="edgeStyle=orthogonalEdgeStyle;rounded=1;orthogonalLoop=1;jettySize=auto;html=1;endArrow=none;endFill=0;" parent="1" source="3wkuOAd4J-libN-LxBJQ-1" edge="1">
          <mxGeometry relative="1" as="geometry">
            <mxPoint x="-60" y="230" as="targetPoint" />
          </mxGeometry>
        </mxCell>
        <mxCell id="3wkuOAd4J-libN-LxBJQ-1" value="User" style="swimlane;childLayout=stackLayout;horizontal=1;startSize=110;horizontalStack=0;rounded=1;fontSize=14;fontStyle=0;strokeWidth=2;resizeParent=0;resizeLast=1;shadow=0;dashed=0;align=center;swimlaneLine=0;" parent="1" vertex="1">
          <mxGeometry x="-290" y="170" width="160" height="120" as="geometry" />
        </mxCell>
        <mxCell id="3wkuOAd4J-libN-LxBJQ-28" style="edgeStyle=orthogonalEdgeStyle;rounded=1;orthogonalLoop=1;jettySize=auto;html=1;entryX=1;entryY=0.5;entryDx=0;entryDy=0;endArrow=none;endFill=0;" parent="1" source="3wkuOAd4J-libN-LxBJQ-3" target="3wkuOAd4J-libN-LxBJQ-23" edge="1">
          <mxGeometry relative="1" as="geometry" />
        </mxCell>
        <mxCell id="Wokrbv4A2JVgRsXC0iDb-31" value="1" style="edgeStyle=orthogonalEdgeStyle;rounded=1;orthogonalLoop=1;jettySize=auto;html=1;exitX=1;exitY=0.5;exitDx=0;exitDy=0;entryX=0.5;entryY=1;entryDx=0;entryDy=0;endArrow=none;endFill=0;" parent="1" source="3wkuOAd4J-libN-LxBJQ-3" edge="1">
          <mxGeometry relative="1" as="geometry">
            <mxPoint y="260" as="targetPoint" />
          </mxGeometry>
        </mxCell>
        <mxCell id="3wkuOAd4J-libN-LxBJQ-3" value="Clothing" style="swimlane;childLayout=stackLayout;horizontal=1;startSize=110;horizontalStack=0;rounded=1;fontSize=14;fontStyle=0;strokeWidth=2;resizeParent=0;resizeLast=1;shadow=0;dashed=0;align=center;swimlaneLine=0;" parent="1" vertex="1">
          <mxGeometry x="-290" y="490" width="160" height="120" as="geometry" />
        </mxCell>
        <mxCell id="3wkuOAd4J-libN-LxBJQ-62" style="edgeStyle=orthogonalEdgeStyle;rounded=1;orthogonalLoop=1;jettySize=auto;html=1;entryX=0;entryY=0.5;entryDx=0;entryDy=0;endArrow=none;endFill=0;" parent="1" source="3wkuOAd4J-libN-LxBJQ-5" target="3wkuOAd4J-libN-LxBJQ-54" edge="1">
          <mxGeometry relative="1" as="geometry" />
        </mxCell>
        <mxCell id="3wkuOAd4J-libN-LxBJQ-5" value="Order" style="swimlane;childLayout=stackLayout;horizontal=1;startSize=110;horizontalStack=0;rounded=1;fontSize=14;fontStyle=0;strokeWidth=2;resizeParent=0;resizeLast=1;shadow=0;dashed=0;align=center;swimlaneLine=0;" parent="1" vertex="1">
          <mxGeometry x="430" y="780" width="160" height="120" as="geometry" />
        </mxCell>
        <mxCell id="3wkuOAd4J-libN-LxBJQ-6" value="Driver" style="swimlane;childLayout=stackLayout;horizontal=1;startSize=110;horizontalStack=0;rounded=1;fontSize=14;fontStyle=0;strokeWidth=2;resizeParent=0;resizeLast=1;shadow=0;dashed=0;align=center;swimlaneLine=0;" parent="1" vertex="1">
          <mxGeometry x="350" y="90" width="160" height="120" as="geometry" />
        </mxCell>
        <mxCell id="Wokrbv4A2JVgRsXC0iDb-5" value="1" style="edgeStyle=orthogonalEdgeStyle;rounded=1;orthogonalLoop=1;jettySize=auto;html=1;exitX=0.5;exitY=1;exitDx=0;exitDy=0;entryX=0.5;entryY=0;entryDx=0;entryDy=0;endArrow=none;endFill=0;" parent="1" source="3wkuOAd4J-libN-LxBJQ-7" target="Wokrbv4A2JVgRsXC0iDb-4" edge="1">
          <mxGeometry relative="1" as="geometry" />
        </mxCell>
        <mxCell id="3wkuOAd4J-libN-LxBJQ-7" value="Schedule" style="swimlane;childLayout=stackLayout;horizontal=1;startSize=110;horizontalStack=0;rounded=1;fontSize=14;fontStyle=0;strokeWidth=2;resizeParent=0;resizeLast=1;shadow=0;dashed=0;align=center;swimlaneLine=0;" parent="1" vertex="1">
          <mxGeometry x="430" y="390" width="160" height="120" as="geometry">
            <mxRectangle x="430" y="390" width="90" height="110" as="alternateBounds" />
          </mxGeometry>
        </mxCell>
        <mxCell id="3wkuOAd4J-libN-LxBJQ-16" style="edgeStyle=orthogonalEdgeStyle;rounded=1;orthogonalLoop=1;jettySize=auto;html=1;exitX=1;exitY=0.5;exitDx=0;exitDy=0;entryX=0;entryY=0.5;entryDx=0;entryDy=0;endArrow=none;endFill=0;" parent="1" source="3wkuOAd4J-libN-LxBJQ-9" target="3wkuOAd4J-libN-LxBJQ-1" edge="1">
          <mxGeometry relative="1" as="geometry" />
        </mxCell>
        <mxCell id="3wkuOAd4J-libN-LxBJQ-9" value="FirstName" style="ellipse;whiteSpace=wrap;html=1;align=center;" parent="1" vertex="1">
          <mxGeometry x="-500" y="60" width="100" height="40" as="geometry" />
        </mxCell>
        <mxCell id="3wkuOAd4J-libN-LxBJQ-17" style="edgeStyle=orthogonalEdgeStyle;rounded=1;orthogonalLoop=1;jettySize=auto;html=1;exitX=1;exitY=0.5;exitDx=0;exitDy=0;endArrow=none;endFill=0;" parent="1" source="3wkuOAd4J-libN-LxBJQ-10" target="3wkuOAd4J-libN-LxBJQ-1" edge="1">
          <mxGeometry relative="1" as="geometry" />
        </mxCell>
        <mxCell id="3wkuOAd4J-libN-LxBJQ-10" value="LastName" style="ellipse;whiteSpace=wrap;html=1;align=center;" parent="1" vertex="1">
          <mxGeometry x="-500" y="100" width="100" height="40" as="geometry" />
        </mxCell>
        <mxCell id="3wkuOAd4J-libN-LxBJQ-18" style="edgeStyle=orthogonalEdgeStyle;rounded=1;orthogonalLoop=1;jettySize=auto;html=1;exitX=1;exitY=0.5;exitDx=0;exitDy=0;endArrow=none;endFill=0;" parent="1" source="3wkuOAd4J-libN-LxBJQ-11" target="3wkuOAd4J-libN-LxBJQ-1" edge="1">
          <mxGeometry relative="1" as="geometry" />
        </mxCell>
        <mxCell id="3wkuOAd4J-libN-LxBJQ-11" value="PhoneNumber" style="ellipse;whiteSpace=wrap;html=1;align=center;" parent="1" vertex="1">
          <mxGeometry x="-500" y="140" width="100" height="40" as="geometry" />
        </mxCell>
        <mxCell id="3wkuOAd4J-libN-LxBJQ-20" style="edgeStyle=orthogonalEdgeStyle;rounded=1;orthogonalLoop=1;jettySize=auto;html=1;exitX=1;exitY=0.5;exitDx=0;exitDy=0;endArrow=none;endFill=0;" parent="1" source="3wkuOAd4J-libN-LxBJQ-12" target="3wkuOAd4J-libN-LxBJQ-1" edge="1">
          <mxGeometry relative="1" as="geometry" />
        </mxCell>
        <mxCell id="3wkuOAd4J-libN-LxBJQ-12" value="City" style="ellipse;whiteSpace=wrap;html=1;align=center;" parent="1" vertex="1">
          <mxGeometry x="-500" y="180" width="100" height="40" as="geometry" />
        </mxCell>
        <mxCell id="3wkuOAd4J-libN-LxBJQ-21" style="edgeStyle=orthogonalEdgeStyle;rounded=1;orthogonalLoop=1;jettySize=auto;html=1;exitX=1;exitY=0.5;exitDx=0;exitDy=0;endArrow=none;endFill=0;" parent="1" source="3wkuOAd4J-libN-LxBJQ-13" target="3wkuOAd4J-libN-LxBJQ-1" edge="1">
          <mxGeometry relative="1" as="geometry" />
        </mxCell>
        <mxCell id="3wkuOAd4J-libN-LxBJQ-13" value="Address" style="ellipse;whiteSpace=wrap;html=1;align=center;" parent="1" vertex="1">
          <mxGeometry x="-500" y="220" width="100" height="40" as="geometry" />
        </mxCell>
        <mxCell id="3wkuOAd4J-libN-LxBJQ-22" style="edgeStyle=orthogonalEdgeStyle;rounded=1;orthogonalLoop=1;jettySize=auto;html=1;exitX=1;exitY=0.5;exitDx=0;exitDy=0;endArrow=none;endFill=0;" parent="1" source="3wkuOAd4J-libN-LxBJQ-14" target="3wkuOAd4J-libN-LxBJQ-1" edge="1">
          <mxGeometry relative="1" as="geometry" />
        </mxCell>
        <mxCell id="3wkuOAd4J-libN-LxBJQ-14" value="&lt;u&gt;Email&lt;/u&gt;" style="ellipse;whiteSpace=wrap;html=1;align=center;" parent="1" vertex="1">
          <mxGeometry x="-500" y="260" width="100" height="40" as="geometry" />
        </mxCell>
        <mxCell id="3wkuOAd4J-libN-LxBJQ-23" value="Name" style="ellipse;whiteSpace=wrap;html=1;align=center;" parent="1" vertex="1">
          <mxGeometry x="-480" y="470" width="100" height="40" as="geometry" />
        </mxCell>
        <mxCell id="3wkuOAd4J-libN-LxBJQ-29" style="edgeStyle=orthogonalEdgeStyle;rounded=1;orthogonalLoop=1;jettySize=auto;html=1;endArrow=none;endFill=0;" parent="1" source="3wkuOAd4J-libN-LxBJQ-24" target="3wkuOAd4J-libN-LxBJQ-3" edge="1">
          <mxGeometry relative="1" as="geometry" />
        </mxCell>
        <mxCell id="3wkuOAd4J-libN-LxBJQ-24" value="SellerName" style="ellipse;whiteSpace=wrap;html=1;align=center;" parent="1" vertex="1">
          <mxGeometry x="-480" y="510" width="100" height="40" as="geometry" />
        </mxCell>
        <mxCell id="3wkuOAd4J-libN-LxBJQ-30" style="edgeStyle=orthogonalEdgeStyle;rounded=1;orthogonalLoop=1;jettySize=auto;html=1;exitX=1;exitY=0.5;exitDx=0;exitDy=0;endArrow=none;endFill=0;" parent="1" source="3wkuOAd4J-libN-LxBJQ-25" target="3wkuOAd4J-libN-LxBJQ-3" edge="1">
          <mxGeometry relative="1" as="geometry" />
        </mxCell>
        <mxCell id="3wkuOAd4J-libN-LxBJQ-25" value="Price" style="ellipse;whiteSpace=wrap;html=1;align=center;" parent="1" vertex="1">
          <mxGeometry x="-480" y="550" width="100" height="40" as="geometry" />
        </mxCell>
        <mxCell id="3wkuOAd4J-libN-LxBJQ-34" style="edgeStyle=orthogonalEdgeStyle;rounded=1;orthogonalLoop=1;jettySize=auto;html=1;exitX=1;exitY=0.5;exitDx=0;exitDy=0;entryX=0;entryY=0.5;entryDx=0;entryDy=0;endArrow=none;endFill=0;" parent="1" source="3wkuOAd4J-libN-LxBJQ-27" target="3wkuOAd4J-libN-LxBJQ-3" edge="1">
          <mxGeometry relative="1" as="geometry" />
        </mxCell>
        <mxCell id="3wkuOAd4J-libN-LxBJQ-27" value="Size" style="ellipse;whiteSpace=wrap;html=1;align=center;" parent="1" vertex="1">
          <mxGeometry x="-480" y="590" width="100" height="40" as="geometry" />
        </mxCell>
        <mxCell id="3wkuOAd4J-libN-LxBJQ-37" style="edgeStyle=orthogonalEdgeStyle;rounded=1;orthogonalLoop=1;jettySize=auto;html=1;endArrow=none;endFill=0;" parent="1" source="3wkuOAd4J-libN-LxBJQ-36" target="3wkuOAd4J-libN-LxBJQ-3" edge="1">
          <mxGeometry relative="1" as="geometry" />
        </mxCell>
        <mxCell id="3wkuOAd4J-libN-LxBJQ-36" value="Id" style="ellipse;whiteSpace=wrap;html=1;align=center;fontStyle=4;" parent="1" vertex="1">
          <mxGeometry x="-330" y="730" width="100" height="40" as="geometry" />
        </mxCell>
        <mxCell id="Wokrbv4A2JVgRsXC0iDb-27" style="edgeStyle=orthogonalEdgeStyle;rounded=1;orthogonalLoop=1;jettySize=auto;html=1;exitX=0.453;exitY=-0.042;exitDx=0;exitDy=0;endArrow=none;endFill=0;entryX=0;entryY=1;entryDx=0;entryDy=0;exitPerimeter=0;" parent="1" source="3wkuOAd4J-libN-LxBJQ-45" target="Wokrbv4A2JVgRsXC0iDb-24" edge="1">
          <mxGeometry relative="1" as="geometry">
            <mxPoint x="-530" y="420" as="targetPoint" />
            <Array as="points">
              <mxPoint x="-615" y="430" />
              <mxPoint x="-240" y="430" />
            </Array>
          </mxGeometry>
        </mxCell>
        <mxCell id="3wkuOAd4J-libN-LxBJQ-45" value="Count" style="ellipse;whiteSpace=wrap;html=1;align=center;" parent="1" vertex="1">
          <mxGeometry x="-660" y="450" width="100" height="40" as="geometry" />
        </mxCell>
        <mxCell id="3wkuOAd4J-libN-LxBJQ-55" style="edgeStyle=orthogonalEdgeStyle;rounded=1;orthogonalLoop=1;jettySize=auto;html=1;entryX=1;entryY=0.5;entryDx=0;entryDy=0;endArrow=none;endFill=0;" parent="1" source="3wkuOAd4J-libN-LxBJQ-49" target="3wkuOAd4J-libN-LxBJQ-5" edge="1">
          <mxGeometry relative="1" as="geometry" />
        </mxCell>
        <mxCell id="3wkuOAd4J-libN-LxBJQ-49" value="Tracing ID" style="ellipse;whiteSpace=wrap;html=1;align=center;fontStyle=4;" parent="1" vertex="1">
          <mxGeometry x="730" y="700" width="100" height="40" as="geometry" />
        </mxCell>
        <mxCell id="3wkuOAd4J-libN-LxBJQ-56" style="edgeStyle=orthogonalEdgeStyle;rounded=1;orthogonalLoop=1;jettySize=auto;html=1;exitX=0;exitY=0.5;exitDx=0;exitDy=0;endArrow=none;endFill=0;" parent="1" source="3wkuOAd4J-libN-LxBJQ-50" target="3wkuOAd4J-libN-LxBJQ-5" edge="1">
          <mxGeometry relative="1" as="geometry" />
        </mxCell>
        <mxCell id="3wkuOAd4J-libN-LxBJQ-50" value="Status" style="ellipse;whiteSpace=wrap;html=1;align=center;" parent="1" vertex="1">
          <mxGeometry x="730" y="750" width="100" height="40" as="geometry" />
        </mxCell>
        <mxCell id="3wkuOAd4J-libN-LxBJQ-57" style="edgeStyle=orthogonalEdgeStyle;rounded=1;orthogonalLoop=1;jettySize=auto;html=1;exitX=0;exitY=0.5;exitDx=0;exitDy=0;endArrow=none;endFill=0;" parent="1" source="3wkuOAd4J-libN-LxBJQ-51" target="3wkuOAd4J-libN-LxBJQ-5" edge="1">
          <mxGeometry relative="1" as="geometry" />
        </mxCell>
        <mxCell id="3wkuOAd4J-libN-LxBJQ-51" value="Submit Date" style="ellipse;whiteSpace=wrap;html=1;align=center;" parent="1" vertex="1">
          <mxGeometry x="730" y="800" width="100" height="40" as="geometry" />
        </mxCell>
        <mxCell id="3wkuOAd4J-libN-LxBJQ-58" style="edgeStyle=orthogonalEdgeStyle;rounded=1;orthogonalLoop=1;jettySize=auto;html=1;exitX=0;exitY=0.5;exitDx=0;exitDy=0;endArrow=none;endFill=0;" parent="1" source="3wkuOAd4J-libN-LxBJQ-52" target="3wkuOAd4J-libN-LxBJQ-5" edge="1">
          <mxGeometry relative="1" as="geometry" />
        </mxCell>
        <mxCell id="3wkuOAd4J-libN-LxBJQ-52" value="Payable Amount&amp;nbsp;" style="ellipse;whiteSpace=wrap;html=1;align=center;" parent="1" vertex="1">
          <mxGeometry x="730" y="850" width="100" height="40" as="geometry" />
        </mxCell>
        <mxCell id="3wkuOAd4J-libN-LxBJQ-54" value="Sending Type" style="ellipse;whiteSpace=wrap;html=1;align=center;" parent="1" vertex="1">
          <mxGeometry x="730" y="900" width="100" height="40" as="geometry" />
        </mxCell>
        <mxCell id="3wkuOAd4J-libN-LxBJQ-64" style="edgeStyle=orthogonalEdgeStyle;rounded=1;orthogonalLoop=1;jettySize=auto;html=1;endArrow=none;endFill=0;" parent="1" source="3wkuOAd4J-libN-LxBJQ-63" target="3wkuOAd4J-libN-LxBJQ-1" edge="1">
          <mxGeometry relative="1" as="geometry" />
        </mxCell>
        <mxCell id="3wkuOAd4J-libN-LxBJQ-63" value="Id" style="ellipse;whiteSpace=wrap;html=1;align=center;fontStyle=4;" parent="1" vertex="1">
          <mxGeometry x="-260" y="60" width="100" height="40" as="geometry" />
        </mxCell>
        <mxCell id="pEwSPlvupSQLcDzylhH3-2" style="edgeStyle=orthogonalEdgeStyle;rounded=0;orthogonalLoop=1;jettySize=auto;html=1;entryX=0;entryY=0.5;entryDx=0;entryDy=0;endArrow=none;endFill=0;" parent="1" source="pEwSPlvupSQLcDzylhH3-1" target="3wkuOAd4J-libN-LxBJQ-3" edge="1">
          <mxGeometry relative="1" as="geometry" />
        </mxCell>
        <mxCell id="pEwSPlvupSQLcDzylhH3-1" value="Type" style="ellipse;whiteSpace=wrap;html=1;align=center;" parent="1" vertex="1">
          <mxGeometry x="-480" y="630" width="100" height="40" as="geometry" />
        </mxCell>
        <mxCell id="pEwSPlvupSQLcDzylhH3-5" style="edgeStyle=orthogonalEdgeStyle;rounded=0;orthogonalLoop=1;jettySize=auto;html=1;entryX=0;entryY=0.5;entryDx=0;entryDy=0;endArrow=none;endFill=0;" parent="1" source="pEwSPlvupSQLcDzylhH3-3" target="3wkuOAd4J-libN-LxBJQ-3" edge="1">
          <mxGeometry relative="1" as="geometry" />
        </mxCell>
        <mxCell id="pEwSPlvupSQLcDzylhH3-3" value="Color" style="ellipse;whiteSpace=wrap;html=1;align=center;" parent="1" vertex="1">
          <mxGeometry x="-480" y="670" width="100" height="40" as="geometry" />
        </mxCell>
        <mxCell id="pEwSPlvupSQLcDzylhH3-6" style="edgeStyle=orthogonalEdgeStyle;rounded=0;orthogonalLoop=1;jettySize=auto;html=1;entryX=0;entryY=0.5;entryDx=0;entryDy=0;endArrow=none;endFill=0;" parent="1" source="pEwSPlvupSQLcDzylhH3-4" target="3wkuOAd4J-libN-LxBJQ-3" edge="1">
          <mxGeometry relative="1" as="geometry" />
        </mxCell>
        <mxCell id="pEwSPlvupSQLcDzylhH3-4" value="&amp;nbsp;Count" style="ellipse;whiteSpace=wrap;html=1;align=center;" parent="1" vertex="1">
          <mxGeometry x="-480" y="710" width="100" height="40" as="geometry" />
        </mxCell>
        <mxCell id="Wokrbv4A2JVgRsXC0iDb-26" value="1" style="edgeStyle=orthogonalEdgeStyle;rounded=1;orthogonalLoop=1;jettySize=auto;html=1;exitX=1;exitY=0.5;exitDx=0;exitDy=0;entryX=0;entryY=0.5;entryDx=0;entryDy=0;endArrow=none;endFill=0;" parent="1" source="pEwSPlvupSQLcDzylhH3-7" target="Wokrbv4A2JVgRsXC0iDb-24" edge="1">
          <mxGeometry relative="1" as="geometry" />
        </mxCell>
        <mxCell id="pEwSPlvupSQLcDzylhH3-7" value="&lt;span style=&quot;font-size: 14px&quot;&gt;Cart&lt;/span&gt;" style="shape=ext;margin=3;double=1;whiteSpace=wrap;html=1;align=center;" parent="1" vertex="1">
          <mxGeometry x="-800" y="370" width="100" height="40" as="geometry" />
        </mxCell>
        <mxCell id="pEwSPlvupSQLcDzylhH3-16" style="edgeStyle=orthogonalEdgeStyle;rounded=0;orthogonalLoop=1;jettySize=auto;html=1;entryX=0.994;entryY=0.457;entryDx=0;entryDy=0;entryPerimeter=0;endArrow=none;endFill=0;" parent="1" source="pEwSPlvupSQLcDzylhH3-11" target="3wkuOAd4J-libN-LxBJQ-6" edge="1">
          <mxGeometry relative="1" as="geometry" />
        </mxCell>
        <mxCell id="pEwSPlvupSQLcDzylhH3-11" value="FirstName" style="ellipse;whiteSpace=wrap;html=1;align=center;" parent="1" vertex="1">
          <mxGeometry x="590" y="-10" width="100" height="40" as="geometry" />
        </mxCell>
        <mxCell id="pEwSPlvupSQLcDzylhH3-17" style="edgeStyle=orthogonalEdgeStyle;rounded=0;orthogonalLoop=1;jettySize=auto;html=1;entryX=0.994;entryY=0.446;entryDx=0;entryDy=0;entryPerimeter=0;endArrow=none;endFill=0;" parent="1" source="pEwSPlvupSQLcDzylhH3-12" target="3wkuOAd4J-libN-LxBJQ-6" edge="1">
          <mxGeometry relative="1" as="geometry" />
        </mxCell>
        <mxCell id="pEwSPlvupSQLcDzylhH3-12" value="LastName" style="ellipse;whiteSpace=wrap;html=1;align=center;" parent="1" vertex="1">
          <mxGeometry x="590" y="30" width="100" height="40" as="geometry" />
        </mxCell>
        <mxCell id="pEwSPlvupSQLcDzylhH3-19" style="edgeStyle=orthogonalEdgeStyle;rounded=0;orthogonalLoop=1;jettySize=auto;html=1;endArrow=none;endFill=0;" parent="1" source="pEwSPlvupSQLcDzylhH3-13" target="3wkuOAd4J-libN-LxBJQ-6" edge="1">
          <mxGeometry relative="1" as="geometry" />
        </mxCell>
        <mxCell id="pEwSPlvupSQLcDzylhH3-13" value="National Code" style="ellipse;whiteSpace=wrap;html=1;align=center;fontStyle=4;" parent="1" vertex="1">
          <mxGeometry x="590" y="70" width="100" height="40" as="geometry" />
        </mxCell>
        <mxCell id="pEwSPlvupSQLcDzylhH3-20" style="edgeStyle=orthogonalEdgeStyle;rounded=0;orthogonalLoop=1;jettySize=auto;html=1;exitX=0;exitY=0.5;exitDx=0;exitDy=0;entryX=1;entryY=0.417;entryDx=0;entryDy=0;entryPerimeter=0;endArrow=none;endFill=0;" parent="1" source="pEwSPlvupSQLcDzylhH3-14" target="3wkuOAd4J-libN-LxBJQ-6" edge="1">
          <mxGeometry relative="1" as="geometry" />
        </mxCell>
        <mxCell id="pEwSPlvupSQLcDzylhH3-14" value="PhoneNumber" style="ellipse;whiteSpace=wrap;html=1;align=center;" parent="1" vertex="1">
          <mxGeometry x="590" y="110" width="100" height="40" as="geometry" />
        </mxCell>
        <mxCell id="pEwSPlvupSQLcDzylhH3-21" style="edgeStyle=orthogonalEdgeStyle;rounded=0;orthogonalLoop=1;jettySize=auto;html=1;entryX=1;entryY=0.5;entryDx=0;entryDy=0;endArrow=none;endFill=0;" parent="1" source="pEwSPlvupSQLcDzylhH3-15" target="3wkuOAd4J-libN-LxBJQ-6" edge="1">
          <mxGeometry relative="1" as="geometry" />
        </mxCell>
        <mxCell id="pEwSPlvupSQLcDzylhH3-15" value="PlateNubmer" style="ellipse;whiteSpace=wrap;html=1;align=center;" parent="1" vertex="1">
          <mxGeometry x="590" y="150" width="100" height="40" as="geometry" />
        </mxCell>
        <mxCell id="Wokrbv4A2JVgRsXC0iDb-10" style="edgeStyle=orthogonalEdgeStyle;rounded=1;orthogonalLoop=1;jettySize=auto;html=1;exitX=0.5;exitY=1;exitDx=0;exitDy=0;entryX=1;entryY=0.5;entryDx=0;entryDy=0;endArrow=none;endFill=0;" parent="1" source="pEwSPlvupSQLcDzylhH3-22" target="3wkuOAd4J-libN-LxBJQ-7" edge="1">
          <mxGeometry relative="1" as="geometry" />
        </mxCell>
        <mxCell id="pEwSPlvupSQLcDzylhH3-22" value="Id" style="ellipse;whiteSpace=wrap;html=1;align=center;fontStyle=4;" parent="1" vertex="1">
          <mxGeometry x="610" y="370" width="100" height="40" as="geometry" />
        </mxCell>
        <mxCell id="Wokrbv4A2JVgRsXC0iDb-2" style="edgeStyle=orthogonalEdgeStyle;rounded=1;orthogonalLoop=1;jettySize=auto;html=1;exitX=0;exitY=0.5;exitDx=0;exitDy=0;entryX=1;entryY=0.5;entryDx=0;entryDy=0;endArrow=none;endFill=0;" parent="1" source="pEwSPlvupSQLcDzylhH3-23" target="3wkuOAd4J-libN-LxBJQ-7" edge="1">
          <mxGeometry relative="1" as="geometry" />
        </mxCell>
        <mxCell id="pEwSPlvupSQLcDzylhH3-23" value="Date" style="ellipse;whiteSpace=wrap;html=1;align=center;" parent="1" vertex="1">
          <mxGeometry x="730" y="430" width="100" height="40" as="geometry" />
        </mxCell>
        <mxCell id="Wokrbv4A2JVgRsXC0iDb-11" style="edgeStyle=orthogonalEdgeStyle;rounded=1;orthogonalLoop=1;jettySize=auto;html=1;exitX=0.5;exitY=0;exitDx=0;exitDy=0;endArrow=none;endFill=0;" parent="1" source="pEwSPlvupSQLcDzylhH3-24" target="3wkuOAd4J-libN-LxBJQ-7" edge="1">
          <mxGeometry relative="1" as="geometry" />
        </mxCell>
        <mxCell id="pEwSPlvupSQLcDzylhH3-24" value="Capacity" style="ellipse;whiteSpace=wrap;html=1;align=center;" parent="1" vertex="1">
          <mxGeometry x="610" y="490" width="100" height="40" as="geometry" />
        </mxCell>
        <mxCell id="Wokrbv4A2JVgRsXC0iDb-6" value="1" style="edgeStyle=orthogonalEdgeStyle;rounded=1;orthogonalLoop=1;jettySize=auto;html=1;exitX=0.5;exitY=1;exitDx=0;exitDy=0;entryX=0.5;entryY=0;entryDx=0;entryDy=0;endArrow=none;endFill=0;" parent="1" source="Wokrbv4A2JVgRsXC0iDb-4" target="3wkuOAd4J-libN-LxBJQ-5" edge="1">
          <mxGeometry relative="1" as="geometry" />
        </mxCell>
        <mxCell id="Wokrbv4A2JVgRsXC0iDb-4" value="Has" style="shape=rhombus;perimeter=rhombusPerimeter;whiteSpace=wrap;html=1;align=center;" parent="1" vertex="1">
          <mxGeometry x="450" y="680" width="120" height="60" as="geometry" />
        </mxCell>
        <mxCell id="Wokrbv4A2JVgRsXC0iDb-8" value="n" style="edgeStyle=orthogonalEdgeStyle;rounded=1;orthogonalLoop=1;jettySize=auto;html=1;exitX=1;exitY=0.5;exitDx=0;exitDy=0;entryX=0;entryY=0.5;entryDx=0;entryDy=0;endArrow=none;endFill=0;" parent="1" source="Wokrbv4A2JVgRsXC0iDb-7" target="3wkuOAd4J-libN-LxBJQ-7" edge="1">
          <mxGeometry relative="1" as="geometry" />
        </mxCell>
        <mxCell id="Wokrbv4A2JVgRsXC0iDb-9" value="1" style="edgeStyle=orthogonalEdgeStyle;rounded=1;orthogonalLoop=1;jettySize=auto;html=1;exitX=0.5;exitY=0;exitDx=0;exitDy=0;entryX=0.5;entryY=1;entryDx=0;entryDy=0;endArrow=none;endFill=0;" parent="1" source="Wokrbv4A2JVgRsXC0iDb-7" target="3wkuOAd4J-libN-LxBJQ-6" edge="1">
          <mxGeometry relative="1" as="geometry" />
        </mxCell>
        <mxCell id="Wokrbv4A2JVgRsXC0iDb-7" value="Deliver" style="shape=rhombus;perimeter=rhombusPerimeter;whiteSpace=wrap;html=1;align=center;" parent="1" vertex="1">
          <mxGeometry x="270" y="420" width="120" height="60" as="geometry" />
        </mxCell>
        <mxCell id="Wokrbv4A2JVgRsXC0iDb-30" value="n" style="edgeStyle=orthogonalEdgeStyle;rounded=1;orthogonalLoop=1;jettySize=auto;html=1;endArrow=none;endFill=0;" parent="1" source="Wokrbv4A2JVgRsXC0iDb-14" edge="1">
          <mxGeometry relative="1" as="geometry">
            <mxPoint x="60" y="230" as="targetPoint" />
          </mxGeometry>
        </mxCell>
        <mxCell id="Wokrbv4A2JVgRsXC0iDb-14" value="Comment" style="shape=ext;margin=3;double=1;whiteSpace=wrap;html=1;align=center;" parent="1" vertex="1">
          <mxGeometry x="140" y="185" width="170" height="90" as="geometry" />
        </mxCell>
        <mxCell id="Wokrbv4A2JVgRsXC0iDb-17" value="1" style="edgeStyle=orthogonalEdgeStyle;rounded=1;orthogonalLoop=1;jettySize=auto;html=1;exitX=0.5;exitY=0;exitDx=0;exitDy=0;entryX=0.5;entryY=1;entryDx=0;entryDy=0;endArrow=none;endFill=0;" parent="1" target="3wkuOAd4J-libN-LxBJQ-1" edge="1">
          <mxGeometry relative="1" as="geometry">
            <mxPoint x="-210" y="360" as="sourcePoint" />
          </mxGeometry>
        </mxCell>
        <mxCell id="Wokrbv4A2JVgRsXC0iDb-18" value="n" style="edgeStyle=orthogonalEdgeStyle;rounded=1;orthogonalLoop=1;jettySize=auto;html=1;exitX=0.5;exitY=1;exitDx=0;exitDy=0;entryX=0.5;entryY=0;entryDx=0;entryDy=0;endArrow=none;endFill=0;" parent="1" target="3wkuOAd4J-libN-LxBJQ-3" edge="1">
          <mxGeometry relative="1" as="geometry">
            <mxPoint x="-210" y="420" as="sourcePoint" />
          </mxGeometry>
        </mxCell>
        <mxCell id="Wokrbv4A2JVgRsXC0iDb-21" value="" style="edgeStyle=orthogonalEdgeStyle;rounded=1;orthogonalLoop=1;jettySize=auto;html=1;endArrow=none;endFill=0;" parent="1" source="Wokrbv4A2JVgRsXC0iDb-20" target="Wokrbv4A2JVgRsXC0iDb-14" edge="1">
          <mxGeometry relative="1" as="geometry" />
        </mxCell>
        <mxCell id="Wokrbv4A2JVgRsXC0iDb-20" value="Score" style="ellipse;whiteSpace=wrap;html=1;align=center;" parent="1" vertex="1">
          <mxGeometry x="175" y="310" width="100" height="40" as="geometry" />
        </mxCell>
        <mxCell id="Wokrbv4A2JVgRsXC0iDb-23" value="" style="edgeStyle=orthogonalEdgeStyle;rounded=1;orthogonalLoop=1;jettySize=auto;html=1;endArrow=none;endFill=0;" parent="1" source="Wokrbv4A2JVgRsXC0iDb-22" target="Wokrbv4A2JVgRsXC0iDb-14" edge="1">
          <mxGeometry relative="1" as="geometry" />
        </mxCell>
        <mxCell id="Wokrbv4A2JVgRsXC0iDb-22" value="Text" style="ellipse;whiteSpace=wrap;html=1;align=center;" parent="1" vertex="1">
          <mxGeometry x="175" y="80" width="100" height="40" as="geometry" />
        </mxCell>
        <mxCell id="Wokrbv4A2JVgRsXC0iDb-24" value="Add/Remove" style="shape=rhombus;perimeter=rhombusPerimeter;whiteSpace=wrap;html=1;align=center;" parent="1" vertex="1">
          <mxGeometry x="-270" y="360" width="120" height="60" as="geometry" />
        </mxCell>
        <mxCell id="Wokrbv4A2JVgRsXC0iDb-33" style="edgeStyle=orthogonalEdgeStyle;rounded=1;orthogonalLoop=1;jettySize=auto;html=1;exitX=0;exitY=0.5;exitDx=0;exitDy=0;endArrow=none;endFill=0;" parent="1" source="Wokrbv4A2JVgRsXC0iDb-32" edge="1">
          <mxGeometry relative="1" as="geometry">
            <mxPoint x="-60" y="230" as="targetPoint" />
          </mxGeometry>
        </mxCell>
        <mxCell id="Wokrbv4A2JVgRsXC0iDb-34" style="edgeStyle=orthogonalEdgeStyle;rounded=1;orthogonalLoop=1;jettySize=auto;html=1;exitX=1;exitY=0.5;exitDx=0;exitDy=0;endArrow=none;endFill=0;" parent="1" source="Wokrbv4A2JVgRsXC0iDb-32" edge="1">
          <mxGeometry relative="1" as="geometry">
            <mxPoint x="60" y="230" as="targetPoint" />
          </mxGeometry>
        </mxCell>
        <mxCell id="Wokrbv4A2JVgRsXC0iDb-35" style="edgeStyle=orthogonalEdgeStyle;rounded=1;orthogonalLoop=1;jettySize=auto;html=1;exitX=0.5;exitY=1;exitDx=0;exitDy=0;endArrow=none;endFill=0;" parent="1" source="Wokrbv4A2JVgRsXC0iDb-32" edge="1">
          <mxGeometry relative="1" as="geometry">
            <mxPoint y="270" as="targetPoint" />
          </mxGeometry>
        </mxCell>
        <mxCell id="Wokrbv4A2JVgRsXC0iDb-32" value="Rate" style="shape=rhombus;double=1;perimeter=rhombusPerimeter;whiteSpace=wrap;html=1;align=center;" parent="1" vertex="1">
          <mxGeometry x="-60" y="180" width="120" height="60" as="geometry" />
        </mxCell>
        <mxCell id="Wokrbv4A2JVgRsXC0iDb-37" value="Has" style="shape=rhombus;double=1;perimeter=rhombusPerimeter;whiteSpace=wrap;html=1;align=center;" parent="1" vertex="1">
          <mxGeometry x="-810" y="290" width="120" height="60" as="geometry" />
        </mxCell>
        <mxCell id="Wokrbv4A2JVgRsXC0iDb-41" value="" style="shape=link;html=1;rounded=1;endArrow=none;endFill=0;strokeColor=#000000;exitX=1;exitY=0.5;exitDx=0;exitDy=0;" parent="1" source="Wokrbv4A2JVgRsXC0iDb-37" edge="1">
          <mxGeometry relative="1" as="geometry">
            <mxPoint x="-550" y="319.65999999999997" as="sourcePoint" />
            <mxPoint x="-240" y="290" as="targetPoint" />
            <Array as="points">
              <mxPoint x="-240" y="320" />
            </Array>
          </mxGeometry>
        </mxCell>
        <mxCell id="Wokrbv4A2JVgRsXC0iDb-42" value="1" style="resizable=0;html=1;align=right;verticalAlign=bottom;" parent="Wokrbv4A2JVgRsXC0iDb-41" connectable="0" vertex="1">
          <mxGeometry x="1" relative="1" as="geometry" />
        </mxCell>
        <mxCell id="Wokrbv4A2JVgRsXC0iDb-43" value="" style="shape=link;html=1;rounded=0;endArrow=none;endFill=0;strokeColor=#000000;exitX=0.5;exitY=1;exitDx=0;exitDy=0;entryX=0.5;entryY=0;entryDx=0;entryDy=0;" parent="1" source="Wokrbv4A2JVgRsXC0iDb-37" target="pEwSPlvupSQLcDzylhH3-7" edge="1">
          <mxGeometry relative="1" as="geometry">
            <mxPoint x="-720" y="350" as="sourcePoint" />
            <mxPoint x="-560" y="350" as="targetPoint" />
          </mxGeometry>
        </mxCell>
        <mxCell id="Wokrbv4A2JVgRsXC0iDb-44" value="1" style="resizable=0;html=1;align=right;verticalAlign=bottom;" parent="Wokrbv4A2JVgRsXC0iDb-43" connectable="0" vertex="1">
          <mxGeometry x="1" relative="1" as="geometry" />
        </mxCell>
        <mxCell id="Wokrbv4A2JVgRsXC0iDb-47" value="n" style="edgeStyle=entityRelationEdgeStyle;rounded=1;orthogonalLoop=1;jettySize=auto;html=1;exitX=1;exitY=0.5;exitDx=0;exitDy=0;entryX=0;entryY=0.5;entryDx=0;entryDy=0;endArrow=none;endFill=0;strokeColor=#000000;" parent="1" source="Wokrbv4A2JVgRsXC0iDb-45" target="3wkuOAd4J-libN-LxBJQ-5" edge="1">
          <mxGeometry relative="1" as="geometry" />
        </mxCell>
        <mxCell id="Wokrbv4A2JVgRsXC0iDb-50" value="1" style="rounded=1;orthogonalLoop=1;jettySize=auto;html=1;exitX=0;exitY=0.5;exitDx=0;exitDy=0;endArrow=none;endFill=0;strokeColor=#000000;entryX=1;entryY=0.75;entryDx=0;entryDy=0;edgeStyle=orthogonalEdgeStyle;" parent="1" source="Wokrbv4A2JVgRsXC0iDb-45" target="3wkuOAd4J-libN-LxBJQ-1" edge="1">
          <mxGeometry relative="1" as="geometry">
            <mxPoint x="230" y="570" as="targetPoint" />
            <Array as="points">
              <mxPoint x="80" y="840" />
              <mxPoint x="80" y="260" />
            </Array>
          </mxGeometry>
        </mxCell>
        <mxCell id="Wokrbv4A2JVgRsXC0iDb-45" value="Has" style="shape=rhombus;perimeter=rhombusPerimeter;whiteSpace=wrap;html=1;align=center;" parent="1" vertex="1">
          <mxGeometry x="110" y="810" width="120" height="60" as="geometry" />
        </mxCell>
        <mxCell id="SxGI7L-OM7rbXlZQaMs1-7" style="edgeStyle=orthogonalEdgeStyle;rounded=1;orthogonalLoop=1;jettySize=auto;html=1;entryX=0;entryY=0.5;entryDx=0;entryDy=0;endArrow=none;endFill=0;strokeColor=none;" parent="1" source="SxGI7L-OM7rbXlZQaMs1-1" target="3wkuOAd4J-libN-LxBJQ-1" edge="1">
          <mxGeometry relative="1" as="geometry" />
        </mxCell>
        <mxCell id="SxGI7L-OM7rbXlZQaMs1-8" style="edgeStyle=orthogonalEdgeStyle;rounded=1;orthogonalLoop=1;jettySize=auto;html=1;entryX=0;entryY=0.5;entryDx=0;entryDy=0;endArrow=none;endFill=0;strokeColor=#000000;" parent="1" source="SxGI7L-OM7rbXlZQaMs1-1" target="3wkuOAd4J-libN-LxBJQ-1" edge="1">
          <mxGeometry relative="1" as="geometry" />
        </mxCell>
        <mxCell id="SxGI7L-OM7rbXlZQaMs1-1" value="Password" style="ellipse;whiteSpace=wrap;html=1;align=center;" parent="1" vertex="1">
          <mxGeometry x="-500" y="20" width="100" height="40" as="geometry" />
        </mxCell>
        <mxCell id="2FD4GW-pOqUx--iD5-FU-5" style="edgeStyle=orthogonalEdgeStyle;rounded=1;orthogonalLoop=1;jettySize=auto;html=1;entryX=0;entryY=0.5;entryDx=0;entryDy=0;endArrow=none;endFill=0;strokeColor=#000000;" edge="1" parent="1" source="2FD4GW-pOqUx--iD5-FU-1" target="3wkuOAd4J-libN-LxBJQ-1">
          <mxGeometry relative="1" as="geometry" />
        </mxCell>
        <mxCell id="2FD4GW-pOqUx--iD5-FU-1" value="SMS&lt;br&gt;verification code" style="ellipse;whiteSpace=wrap;html=1;align=center;" vertex="1" parent="1">
          <mxGeometry x="-500" y="-20" width="100" height="40" as="geometry" />
        </mxCell>
        <mxCell id="2FD4GW-pOqUx--iD5-FU-6" style="edgeStyle=orthogonalEdgeStyle;rounded=1;orthogonalLoop=1;jettySize=auto;html=1;entryX=0;entryY=0.5;entryDx=0;entryDy=0;endArrow=none;endFill=0;strokeColor=#000000;" edge="1" parent="1" source="2FD4GW-pOqUx--iD5-FU-2" target="3wkuOAd4J-libN-LxBJQ-1">
          <mxGeometry relative="1" as="geometry" />
        </mxCell>
        <mxCell id="2FD4GW-pOqUx--iD5-FU-2" value="Verified" style="ellipse;whiteSpace=wrap;html=1;align=center;" vertex="1" parent="1">
          <mxGeometry x="-500" y="-60" width="100" height="40" as="geometry" />
        </mxCell>
        <mxCell id="2FD4GW-pOqUx--iD5-FU-4" style="edgeStyle=orthogonalEdgeStyle;rounded=1;orthogonalLoop=1;jettySize=auto;html=1;entryX=0;entryY=0.5;entryDx=0;entryDy=0;endArrow=none;endFill=0;" edge="1" parent="1" source="2FD4GW-pOqUx--iD5-FU-3" target="3wkuOAd4J-libN-LxBJQ-1">
          <mxGeometry relative="1" as="geometry" />
        </mxCell>
        <mxCell id="2FD4GW-pOqUx--iD5-FU-3" value="Expiration Date" style="ellipse;whiteSpace=wrap;html=1;align=center;" vertex="1" parent="1">
          <mxGeometry x="-500" y="-100" width="100" height="40" as="geometry" />
        </mxCell>
      </root>
    </mxGraphModel>
  </diagram>
</mxfile>
